<?xml version="1.0" encoding="utf-8"?>
<!-- Generator: Adobe Illustrator 26.0.2, SVG Export Plug-In . SVG Version: 6.00 Build 0)  -->
<svg version="1.1" id="Layer_1" xmlns="http://www.w3.org/2000/svg" xmlns:xlink="http://www.w3.org/1999/xlink" x="0px" y="0px"
	 viewBox="0 0 202.03 201.03" style="enable-background:new 0 0 202.03 201.03;" xml:space="preserve">
<style type="text/css">
	.st0{fill:none;}
	.st1{fill:#002447;}
	.st2{fill-rule:evenodd;clip-rule:evenodd;fill:#002447;}
	.st3{fill-rule:evenodd;clip-rule:evenodd;fill:#FFFFFF;}
	.st4{fill-rule:evenodd;clip-rule:evenodd;fill:#D4BA6B;}
	.st5{fill-rule:evenodd;clip-rule:evenodd;fill:#009DDC;}
	.st6{fill-rule:evenodd;clip-rule:evenodd;fill:#E1251B;}
	.st7{fill-rule:evenodd;clip-rule:evenodd;}
	.st8{fill-rule:evenodd;clip-rule:evenodd;fill:#E6CF92;}
	.st9{fill-rule:evenodd;clip-rule:evenodd;fill:#221D20;}
	.st10{fill-rule:evenodd;clip-rule:evenodd;fill:#D4BA6B;enable-background:new    ;}
	.st11{fill-rule:evenodd;clip-rule:evenodd;fill:#EE2A24;}
	.st12{fill:#D4BA6B;}
	.st13{fill:#03296A;}
	.st14{fill:#F99D1C;}
	.st15{fill:#A6CE39;}
	.st16{fill:#ED1C24;}
	.st17{fill:#00B1EB;}
	.st18{fill:#9665AA;}
	.st19{fill:#B1B3B6;}
</style>
<g>
	<rect x="-19.28" y="-27.01" class="st0" width="253.62" height="254.95"/>
	<g>
		<g>
			<path class="st1" d="M53.47,158.18c0,8-6.43,14.43-14.73,14.43h-6.31v13.23h-9.62v-42.09h15.93
				C47.04,143.75,53.47,150.19,53.47,158.18z M43.85,158.18c0-3.07-2.16-5.41-5.11-5.41h-6.31v10.82h6.31
				C41.69,163.6,43.85,161.25,43.85,158.18z"/>
			<path class="st1" d="M151.22,143.75v42.09h-9.62v-42.09H151.22z"/>
			<path class="st1" d="M109.78,172.63v13.21h-9.62v-42.09h16.84c8,0,14.43,6.43,14.43,14.43c0,5.17-2.99,10.23-7.64,12.41
				l8.84,15.24h-10.34l-7.58-13.21H109.78z M109.78,164.21h7.22c2.65,0,4.81-2.48,4.81-5.72c0-3.24-2.16-5.72-4.81-5.72h-7.22
				V164.21z"/>
			<path class="st2" d="M66.18,178.44c2.42,0.62,4.95,0.95,7.56,0.95c2.61,0,5.14-0.33,7.56-0.95l2.36,7.4h10.52l-14.31-42.09H67.61
				L53.3,185.84h10.52L66.18,178.44z M68.77,170.35c1.59,0.41,3.26,0.62,4.98,0.62c1.72,0,3.39-0.22,4.98-0.62l-4.98-15.59
				L68.77,170.35z"/>
			<path class="st1" d="M175.65,152.29c4.19,0,5.91,2.25,7.36,4.35l8.03-4.23c-1.33-2.64-5.26-9.5-15.39-9.5
				c-7.12,0-14.13,4.53-14.13,12.81c0,9.94,9.45,11.76,12.39,12.81c2.94,1.04,8.72,1.77,8.72,5.35c0,2.49-2.61,3.43-6.01,3.43
				c-3.79,0-6.82-2.08-8.65-5.32l-8.19,4.29c0.63,1.75,5.38,10.4,16.84,10.4c9,0,15.63-4.73,15.63-12.93
				c0-6.48-3.53-10.06-11.95-12.55c-6.54-1.93-9.16-3.05-9.16-5.73C171.14,153.48,173.06,152.29,175.65,152.29z"/>
		</g>
		<g>
			<path class="st1" d="M50.39,121.38h2.4l3.55,10.71l3.57-10.71h2.39l-4.64,13.36h-2.63L50.39,121.38z"/>
			<path class="st1" d="M72.21,121.38v13.36h-2.19v-13.36H72.21z"/>
			<path class="st1" d="M89.55,132.64v2.1h-7.63v-13.36h2.19v11.26H89.55z"/>
			<path class="st1" d="M104.36,132.64v2.1h-7.63v-13.36h2.19v11.26H104.36z"/>
			<path class="st1" d="M148.82,128.06c0,3.72-2.71,6.68-6.39,6.68h-5.25v-13.36h5.25C146.11,121.38,148.82,124.32,148.82,128.06z
				 M146.7,128.06c0-2.65-1.74-4.58-4.27-4.58h-3.05v9.16h3.05C144.97,132.64,146.7,130.69,146.7,128.06z"/>
			<path class="st1" d="M164.67,132.64v2.1h-8.11v-13.36h8.01v2.1h-5.82v3.47h3.69v2.08h-3.69v3.61H164.67z"/>
			<path class="st1" d="M119.64,132.64v2.1h-8.11v-13.36h8.01v2.1h-5.82v3.47h3.69v2.08h-3.69v3.61H119.64z"/>
		</g>
		<path class="st1" d="M159.74,72.74c-0.37,0-0.67,0.35-1.1,1.29c-9.59,21.01-27.28,31.08-46.01,31.22
			C75.34,105.52,66.55,74.83,66.32,74l19.04,3.56c0.1,0.21,7.38,16.95,26.61,16.95c20.34,0,34.5-20.29,34.5-41.27
			c0-18.88-7.96-29.68-19.53-38.16L75.12,39.06c-0.47,0.22-0.4,0.91,0.11,1.02c28.7,6.65,33.57,27.27,32.21,38.96
			c-0.2,1.75,0.94,1.45,2.05-1.82c3.91-11.62,1.1-28.54-14.46-38.07c0,0,28.8-14.41,28.8-14.4c3.46,2.68,14.79,10.32,14.79,28.48
			c0,18.17-10.5,34.69-26.66,34.69c-16.05,0-21.64-16.4-21.73-16.62l-34.24-7.47c-0.55-0.14-1.07,0.31-1.01,0.87
			c2.98,26.13,23.89,47.54,54.2,47.54c25.15,0,42.22-13.83,49.49-33.37C160.35,74.37,160.27,72.74,159.74,72.74z"/>
	</g>
</g>
</svg>
