<?xml version="1.0" encoding="utf-8"?>
<!-- Generator: Adobe Illustrator 26.0.2, SVG Export Plug-In . SVG Version: 6.00 Build 0)  -->
<svg version="1.1" id="Layer_1" xmlns="http://www.w3.org/2000/svg" xmlns:xlink="http://www.w3.org/1999/xlink" x="0px" y="0px"
	 viewBox="0 0 368.61 97.26" style="enable-background:new 0 0 368.61 97.26;" xml:space="preserve">
<style type="text/css">
	.st0{fill:none;}
	.st1{fill:#002447;}
	.st2{fill-rule:evenodd;clip-rule:evenodd;fill:#002447;}
	.st3{fill-rule:evenodd;clip-rule:evenodd;fill:#FFFFFF;}
	.st4{fill-rule:evenodd;clip-rule:evenodd;fill:#D4BA6B;}
	.st5{fill-rule:evenodd;clip-rule:evenodd;fill:#009DDC;}
	.st6{fill-rule:evenodd;clip-rule:evenodd;fill:#E1251B;}
	.st7{fill-rule:evenodd;clip-rule:evenodd;}
	.st8{fill-rule:evenodd;clip-rule:evenodd;fill:#E6CF92;}
	.st9{fill-rule:evenodd;clip-rule:evenodd;fill:#221D20;}
	.st10{fill-rule:evenodd;clip-rule:evenodd;fill:#D4BA6B;enable-background:new    ;}
	.st11{fill-rule:evenodd;clip-rule:evenodd;fill:#EE2A24;}
	.st12{fill:#D4BA6B;}
	.st13{fill:#03296A;}
	.st14{fill:#F99D1C;}
	.st15{fill:#A6CE39;}
	.st16{fill:#ED1C24;}
	.st17{fill:#00B1EB;}
	.st18{fill:#9665AA;}
	.st19{fill:#B1B3B6;}
</style>
<g>
	<g>
		<path class="st13" d="M26.56,22.41h-6.19v9.7h6.19c3.43,0,6.19,2.76,6.19,6.19v7.11c0,5.1-4.18,9.28-9.29,9.28
			c-5.1,0-9.28-4.18-9.28-9.28v-3.6h6.19v6.19h6.19v-9.7h-6.19c-3.43,0-6.19-2.76-6.19-6.19V25c0-5.1,4.19-9.28,9.28-9.28
			c5.1,0,9.29,4.18,9.29,9.28v3.59h-6.19V22.41z"/>
		<path class="st13" d="M69.13,54.69c-1.67-0.08-3.18-0.76-4.35-1.84c-1.17-1.09-1.84-2.68-1.84-4.35V28.6h6.19V54.69z"/>
		<path class="st13" d="M75.32,16.22h12.37c3.43,0,6.19,2.76,6.19,6.19v31.78h-6.19V22.41h-6.18v31.78h-6.19V16.22z"/>
		<path class="st13" d="M100.07,25c0-5.1,4.18-9.28,9.28-9.28c5.1,0,9.28,4.18,9.28,9.28V38.3h-12.38v9.7h6.19V41.8h6.19v3.6
			c0,5.1-4.18,9.28-9.28,9.28c-5.1,0-9.28-4.18-9.28-9.28V25z M106.26,32.11h6.19v-9.7h-6.19V32.11z"/>
		<path class="st13" d="M149.93,22.41h-6.19v9.7h6.19c3.43,0,6.19,2.76,6.19,6.19v7.11c0,5.1-4.18,9.28-9.28,9.28
			c-5.1,0-9.28-4.18-9.28-9.28v-3.6h6.19v6.19h6.19v-9.7h-6.19c-3.43,0-6.19-2.76-6.19-6.19V25c0-5.1,4.19-9.28,9.28-9.28
			c5.1,0,9.28,4.18,9.28,9.28v3.59h-6.19V22.41z"/>
		<path class="st13" d="M180.13,53.93l-12.38,0.25c-3.43,0-6.19-2.76-6.19-6.19v-13.2c0-3.43,2.76-6.19,6.19-6.19h6.19v-6.19H162.9
			v-6.19h11.04c3.43,0,6.19,2.76,6.19,5.94V53.93z M167.75,47.99h6.19v-13.2h-6.19V47.99z"/>
		<path class="st13" d="M192.51,54.69c-1.67-0.08-3.18-0.76-4.35-1.84c-1.17-1.09-1.84-2.68-1.84-4.35V28.6h6.19V54.69z"/>
		<path class="st13" d="M198.69,16.22h12.38c3.43,0,6.19,2.76,6.19,6.19v31.78h-6.19V22.41h-6.19v31.78h-6.19V16.22z"/>
		<path class="st13" d="M251.65,16.22h12.38c3.43,0,6.19,2.76,6.19,6.19v25.58c0,3.43-2.75,6.19-6.19,6.19h-12.38V16.22z
			 M257.84,47.99h6.18V22.41h-6.18V47.99z"/>
		<path class="st13" d="M276.4,25c0-5.1,4.18-9.28,9.28-9.28c5.1,0,9.28,4.18,9.28,9.28V38.3h-12.38v9.7h6.19V41.8h6.19v3.6
			c0,5.1-4.18,9.28-9.28,9.28c-5.1,0-9.28-4.18-9.28-9.28V25z M282.59,32.11h6.19v-9.7h-6.19V32.11z"/>
		<path class="st13" d="M301.15,16.22h12.38c3.43,0,6.18,2.76,6.18,6.19v31.78h-6.18V22.41h-6.19v31.78h-6.19V16.22z"/>
		<path class="st13" d="M332.1,54.69c-1.67-0.08-3.18-0.76-4.35-1.84c-1.17-1.09-1.84-2.68-1.84-4.35V28.6h6.19V54.69z"/>
		<path class="st13" d="M349.91,22.41h-6.19v9.7h6.19c3.43,0,6.19,2.76,6.19,6.19v7.11c0,5.1-4.18,9.28-9.28,9.28
			c-5.1,0-9.28-4.18-9.28-9.28v-3.6h6.19v6.19h6.19v-9.7h-6.19c-3.43,0-6.19-2.76-6.19-6.19V25c0-5.1,4.18-9.28,9.28-9.28
			c5.1,0,9.28,4.18,9.28,9.28v3.59h-6.19V22.41z"/>
		<polygon class="st13" points="221.11,16.22 221.11,22.41 227.16,22.41 227.16,54.19 233.34,54.19 233.34,22.41 239.54,22.41 
			239.54,16.22 		"/>
		<path class="st13" d="M38.18,25c0-5.1,4.18-9.28,9.28-9.28c5.1,0,9.28,4.18,9.28,9.28V38.3H44.37v9.7h6.19V41.8h6.19v3.6
			c0,5.1-4.18,9.28-9.28,9.28c-5.1,0-9.28-4.18-9.28-9.28V25z M44.37,32.11h6.19v-9.7h-6.19V32.11z"/>
	</g>
	<g>
		<rect x="62.94" y="16.22" class="st14" width="6.19" height="6.19"/>
		<rect x="186.31" y="16.22" class="st15" width="6.19" height="6.19"/>
		<rect x="325.91" y="16.22" class="st16" width="6.19" height="6.19"/>
		<rect x="239.17" y="32.11" class="st17" width="6.19" height="6.19"/>
		<rect x="125.49" y="32.11" class="st18" width="6.19" height="6.19"/>
	</g>
	<g>
		<g>
			<path class="st19" d="M84.27,66.57h2.6v16.59h4.37v2.19h-6.97V66.57z"/>
			<path class="st19" d="M98.08,66.57h7.08v2.18h-4.48v5.88h4.21v2.18h-4.21v6.34h4.48v2.19h-7.08V66.57z"/>
			<path class="st19" d="M122.35,66.57h4.19c4.21,0,4.55,1.4,4.55,6.87v5.59c0,4.81-0.86,6.32-4.97,6.32h-3.77V66.57z M124.95,83.16
				h1.25c1.92,0,2.29-1.01,2.29-4.24v-6.45c0-2.78-0.29-3.72-2.5-3.72h-1.04V83.16z"/>
			<path class="st19" d="M138.55,66.57h7.07v2.18h-4.47v5.88h4.21v2.18h-4.21v6.34h4.47v2.19h-7.07V66.57z M142.53,61.5h2.6
				l-2.84,3.77h-1.56L142.53,61.5z"/>
			<path class="st19" d="M152.37,66.57h4.29c3.54,0,4.21,0.96,4.21,5.31c0,4.35-0.68,5.31-4.21,5.31h-1.69v8.16h-2.6V66.57z
				 M154.97,74.99h1.35c1.77,0,1.95-0.29,1.95-3.12c0-2.84-0.18-3.12-1.95-3.12h-1.35V74.99z"/>
			<path class="st19" d="M169.63,66.57h3.02l3.82,18.78h-2.6l-0.86-4.78h-4.06l-0.86,4.78h-2.6L169.63,66.57z M169.35,78.37h3.3
				l-1.61-9.05h-0.05L169.35,78.37z"/>
			<path class="st19" d="M183.34,66.57h4.03c3.8,0,4.19,1.01,4.19,5.12c0,2.52-0.34,3.61-2.47,4.27v0.05
				c1.77,0.18,2.37,1.09,2.37,2.86v4.08c0,0.68,0,1.61,0.15,2.39h-2.44c-0.26-0.47-0.31-0.94-0.31-1.69v-4.24
				c0-1.77-0.31-2.24-2.03-2.24h-0.88v8.16h-2.6V66.57z M185.94,74.99h0.68c2.05,0,2.34-0.39,2.34-3.2c0-2.78-0.16-3.04-1.77-3.04
				h-1.25V74.99z"/>
			<path class="st19" d="M197.31,66.57h8.85v2.18h-3.12v16.59h-2.6V68.75h-3.13V66.57z"/>
			<path class="st19" d="M212.89,66.57h7.08v2.18h-4.47v5.88h4.21v2.18h-4.21v6.34h4.47v2.19h-7.08V66.57z"/>
			<path class="st19" d="M226.7,66.57h4.14l2.39,14.3h0.05l2.4-14.3h4.03v18.78h-2.45V68.44h-0.05l-2.65,16.91h-2.6l-2.92-16.91
				h-0.05v16.91h-2.29V66.57z"/>
			<path class="st19" d="M247.25,66.57h7.08v2.18h-4.48v5.88h4.22v2.18h-4.22v6.34h4.48v2.19h-7.08V66.57z"/>
			<path class="st19" d="M261.06,66.57h3.59l3.07,15.61h0.05V66.57h2.44v18.78h-3.74l-3.07-16.02h-0.05v16.02h-2.29V66.57z"/>
			<path class="st19" d="M276.95,66.57h8.84v2.18h-3.12v16.59h-2.6V68.75h-3.12V66.57z"/>
		</g>
	</g>
</g>
</svg>
